# xmcd CD database file
#
# Track frame offsets:
#	150
#	18359
#	41151
#	74843
#	108050
#	123780
#	170914
#	192392
#	215628
#	231022
#	251784
#
# Disc length: 3537 seconds
#
# Revision: 0
# Processed by: cddbd v1.5.2PL0 Copyright (c) Steve Scherf et al.
# Submitted via: CDex 1.91
#
DISCID=a30dcf0b
DTITLE=Jazziz - Jazziz 2014 Winter Jazziz Nightlife Disc 2
DYEAR=2014
DGENRE=Jazz
TTITLE0=Ethan Farmer - Beautiful
TTITLE1=Laurence Elder - Surrounded by You
TTITLE2=Randy Brecker - First Tune of the Set
TTITLE3=Spyro Gyra - Sorbet
TTITLE4=Karina Iglesias - The Way 
TTITLE5=Troy Roberts - One Day Wonder
TTITLE6=Global Noize - It's A Family Affair
TTITLE7=Urban Gypsy - Tres Notras Para Decir Te Quiero
TTITLE8=Debbie Orta - Obsession 
TTITLE9=Crossing - Relentless
TTITLE10=Herb Alpert - Puttin' on the Ritz
EXTD=YEAR: 2014
EXTT0=
EXTT1=
EXTT2=
EXTT3=
EXTT4=
EXTT5=
EXTT6=
EXTT7=
EXTT8=
EXTT9=
EXTT10=
PLAYORDER=
